<svg width="7517" height="2811" viewBox="0 0 7517 2811" fill="none" xmlns="http://www.w3.org/2000/svg">
<path opacity="0.995" fill-rule="evenodd" clip-rule="evenodd" d="M2752.42 641.246C2940.72 621.428 3102.24 676.781 3236.98 807.301C3168.99 878.922 3100.94 950.604 3032.81 1022.36C2925.63 925.401 2808.57 911.79 2681.64 981.522C2617.06 1028.09 2578.04 1090.71 2564.59 1169.36C2560.96 1327.24 2560.96 1485.13 2564.59 1643.02C2595.62 1786.55 2684.55 1864.59 2831.37 1877.13C3021.23 1851.46 3111.06 1742.57 3100.87 1550.47C3040.98 1550.47 2981.09 1550.47 2921.2 1550.47C2921.2 1450.65 2921.2 1350.83 2921.2 1251.02C3080.9 1251.02 3240.61 1251.02 3400.31 1251.02C3401.22 1396.22 3400.31 1541.4 3397.59 1686.58C3346.53 1953.6 3187.73 2114.21 2921.2 2168.41C2677.33 2196.62 2485.87 2110.41 2346.81 1909.8C2310.73 1848.75 2285.32 1783.42 2270.59 1713.8C2264.5 1612.34 2261.78 1510.72 2262.42 1408.91C2263.33 1319.99 2264.24 1231.06 2265.15 1142.13C2314.75 864.778 2477.18 697.813 2752.42 641.246Z" fill="white"/>
<path opacity="0.993" fill-rule="evenodd" clip-rule="evenodd" d="M936.782 668.463C1230.78 668.463 1524.78 668.463 1818.78 668.463C1818.78 768.275 1818.78 868.094 1818.78 967.906C1524.78 967.906 1230.78 967.906 936.782 967.906C936.782 868.094 936.782 768.275 936.782 668.463Z" fill="white"/>
<path opacity="0.983" fill-rule="evenodd" clip-rule="evenodd" d="M3849.74 668.465C4054.83 667.556 4259.87 668.465 4464.96 671.188C4674.52 701.121 4813.35 816.358 4881.46 1016.91C4933.4 1255.97 4858.05 1442.9 4655.52 1577.69C4742.63 1760.98 4829.74 1944.28 4916.85 2127.57C4806.16 2134.83 4695.42 2134.83 4584.74 2127.57C4508.19 1965.39 4430.17 1803.87 4350.63 1643.02C4283.55 1637.58 4216.42 1635.77 4149.18 1637.57C4149.18 1804.54 4149.18 1971.5 4149.18 2138.46C4048.03 2140.24 3947.31 2138.42 3847.02 2133.02C3842.5 1644.45 3843.43 1156.27 3849.74 668.465ZM4149.18 962.465C4238.15 961.555 4327.05 962.465 4415.96 965.187C4548.86 985.565 4607.82 1062.7 4592.91 1196.58C4567.21 1282.18 4510.04 1330.27 4421.41 1340.85C4330.7 1343.57 4239.94 1344.48 4149.18 1343.57C4149.18 1216.54 4149.18 1089.5 4149.18 962.465Z" fill="white"/>
<path opacity="0.996" fill-rule="evenodd" clip-rule="evenodd" d="M936.782 1251.02C1230.78 1251.02 1524.78 1251.02 1818.78 1251.02C1818.78 1350.83 1818.78 1450.65 1818.78 1550.46C1622.78 1550.46 1426.78 1550.46 1230.78 1550.46C1230.78 1746.46 1230.78 1942.46 1230.78 2138.46C1132.78 2138.46 1034.78 2138.46 936.782 2138.46C936.782 1842.65 936.782 1546.83 936.782 1251.02Z" fill="white"/>
<path d="M5628.36 2156.07L5627.33 1859.28H5794.15C5898.54 1859.28 5983.83 1843.92 6050.01 1813.22C6116.19 1782.52 6164.97 1733.39 6196.36 1665.85C6228.43 1598.3 6244.46 1509.26 6244.46 1398.73C6244.46 1289.57 6229.11 1203.26 6198.4 1139.81C6167.7 1075.67 6119.26 1029.96 6053.08 1002.67C5986.9 975.377 5900.25 961.732 5793.13 961.732H5620.17V668.009H5843.28C6000.88 668.009 6134.27 695.641 6243.44 750.906C6353.28 806.171 6436.86 887.704 6494.17 995.505C6551.49 1103.31 6580.14 1236.35 6580.14 1394.64C6580.14 1554.29 6550.46 1691.09 6491.1 1805.03C6431.75 1918.29 6347.48 2005.28 6238.32 2066.01C6129.84 2126.05 6001.22 2156.07 5852.49 2156.07H5628.36ZM5378.64 2156.07V668.009H5704.09V2156.07H5378.64Z" fill="#5C57F5"/>
</svg>
